<svg xmlns="http://www.w3.org/2000/svg" version="1.1" xmlns:xlink="http://www.w3.org/1999/xlink" width="512" height="512" x="0" y="0" viewBox="0 0 512 512" style="enable-background:new 0 0 512 512" xml:space="preserve" class=""><g><path d="M290.916 0h-69.832c-19.488 0-35.343 15.854-35.343 35.343v9.348H85.621c-23.339 0-42.328 18.988-42.328 42.327 0 22.254 17.266 40.538 39.103 42.193v347.445c0 19.489 15.855 35.345 35.345 35.345h284.897c19.489 0 35.345-15.855 35.345-35.345v-348.94c17.714-5.059 30.724-21.382 30.724-40.698 0-23.339-18.988-42.327-42.327-42.327H326.259v-9.348C326.259 15.854 310.404 0 290.916 0zm-79.175 35.343c0-5.151 4.191-9.343 9.343-9.343h69.832c5.151 0 9.342 4.191 9.342 9.343v9.348h-88.517zM402.638 486H117.741c-5.153 0-9.345-4.192-9.345-9.345v-347.31h303.586v347.31c.001 5.153-4.191 9.345-9.344 9.345zm40.069-398.982c0 9.003-7.324 16.328-16.327 16.328H85.621c-9.003 0-16.328-7.325-16.328-16.328S76.618 70.69 85.621 70.69H426.38c9.003 0 16.327 7.325 16.327 16.328zM190.793 190.362v234.621c0 7.18-5.82 13-13 13s-13-5.82-13-13V190.362c0-7.18 5.82-13 13-13s13 5.821 13 13zm82.397 0v234.621c0 7.18-5.82 13-13 13s-13-5.82-13-13V190.362c0-7.18 5.82-13 13-13s13 5.821 13 13zm82.396 0v234.621c0 7.18-5.82 13-13 13s-13-5.82-13-13V190.362c0-7.18 5.82-13 13-13s13 5.821 13 13z" fill="#000000" opacity="1" data-original="#000000" class=""></path></g></svg>