<svg xmlns="http://www.w3.org/2000/svg" version="1.1" xmlns:xlink="http://www.w3.org/1999/xlink" width="512" height="512" x="0" y="0" viewBox="0 0 469.333 469.333" style="enable-background:new 0 0 512 512" xml:space="preserve" class=""><g><path d="M456.833 172.501 318.167 33.834c-7.953-7.953-18.816-12.392-29.717-12.5-11.201-.111-22.444 4.328-30.616 12.5L12.5 279.168C4.437 287.23 0 297.939 0 309.334c0 11.396 4.438 22.104 12.594 30.26l95.531 93.24c10.01 9.781 23.25 15.167 37.25 15.167h71.771c14.115 0 27.427-5.469 37.49-15.396l202.198-199.771c8.063-8.063 12.5-18.771 12.5-30.167-.001-11.395-4.438-22.103-12.501-30.166zM239.646 417.428c-6.042 5.958-14.031 9.24-22.5 9.24h-71.771c-8.406 0-16.344-3.229-22.354-9.104l-95.438-93.146a21.187 21.187 0 0 1-6.25-15.083 21.187 21.187 0 0 1 6.25-15.083L153.375 168.46l168.111 168.11-81.84 80.858zm202.146-199.719L336.66 321.578 168.458 153.376 272.917 48.918A21.187 21.187 0 0 1 288 42.668a21.187 21.187 0 0 1 15.083 6.25L441.75 187.584a21.187 21.187 0 0 1 6.25 15.083c0 5.699-2.219 11.053-6.208 15.042z" fill="#000000" opacity="1" data-original="#000000" class=""></path></g></svg>